<?xml version="1.0" encoding="UTF-8" standalone="no"?>
<svg xmlns="http://www.w3.org/2000/svg" version="1.1"
     width="640" height="640" viewBox="0 0 640 640">
  <!-- tracer.py: pure-Python Potrace transpile -->
  <path
    fill="#000000"
    stroke="none"
    fill-rule="evenodd"
    d="M301.500 82.000 C 271.741 84.126,234.310 100.690,214.500 120.500 C 203.352 131.648,194.992 141.743,188.000 152.500 C 171.996 177.121,163.483 202.825,162.000 231.000 C 160.513 259.252,169.527 288.548,192.000 328.500 C 196.294 336.134,204.413 348.869,217.500 368.500 C 225.197 380.045,256.985 422.430,282.000 454.500 C 292.725 468.250,304.875 484.450,309.000 490.500 C 313.125 496.550,316.950 501.950,317.500 502.500 C 318.167 503.167,320.667 500.500,325.000 494.500 C 335.810 479.532,369.437 434.876,387.500 411.500 C 415.933 374.704,439.429 340.626,453.000 316.500 C 460.408 303.330,470.302 282.095,473.500 272.500 C 477.315 261.055,478.500 252.641,478.500 237.000 C 478.500 230.125,478.050 221.350,477.500 217.500 C 476.156 208.090,472.066 191.971,469.000 184.000 C 463.985 170.960,455.362 155.318,447.500 145.000 C 438.121 132.690,423.766 118.746,412.500 111.000 C 400.976 103.078,381.010 92.977,370.000 89.500 C 348.446 82.693,326.078 80.244,301.500 82.000  M338.000 187.000 C 341.025 187.825,347.325 190.300,352.000 192.500 L 360.500 196.500 370.000 206.000 L 379.500 215.500 383.500 224.000 C 385.700 228.675,388.175 234.975,389.000 238.000 C 392.152 249.558,391.936 266.832,388.500 278.000 C 385.272 288.493,380.440 295.670,371.000 304.000 C 360.887 312.923,353.165 317.612,343.000 321.000 C 333.166 324.278,314.893 325.227,304.500 323.000 C 297.516 321.503,283.737 315.289,279.000 311.500 C 271.212 305.270,264.980 298.692,261.000 292.500 C 255.607 284.110,253.009 277.877,251.000 268.500 C 247.924 254.143,249.811 239.214,256.500 225.000 C 264.916 207.117,278.246 194.470,295.500 188.000 C 305.290 184.329,326.385 183.832,338.000 187.000  M350.000 472.500 C 343.125 481.850,333.225 495.575,328.000 503.000 C 322.775 510.425,318.275 516.275,318.000 516.000 C 317.725 515.725,312.775 508.750,307.000 500.500 C 301.225 492.250,291.550 478.975,285.500 471.000 L 274.500 456.500 271.500 456.500 C 269.850 456.500,264.225 457.850,259.000 459.500 C 239.383 465.695,224.364 474.561,217.500 484.000 C 211.235 492.615,209.500 497.385,209.500 506.000 C 209.500 511.333,210.078 514.800,211.500 518.000 C 214.225 524.131,225.983 535.633,234.500 540.500 C 238.350 542.700,245.325 546.075,250.000 548.000 C 260.213 552.205,280.126 557.125,292.500 558.500 C 297.450 559.050,309.825 559.500,320.000 559.500 C 330.175 559.500,342.775 559.050,348.000 558.500 C 353.225 557.950,362.900 556.150,369.500 554.500 C 387.571 549.982,398.696 545.369,410.500 537.500 C 418.936 531.876,425.083 525.574,428.000 519.559 L 430.500 514.404 430.500 505.952 C 430.500 499.500,430.027 496.553,428.500 493.500 C 425.195 486.891,420.834 481.750,414.500 477.000 C 403.238 468.554,389.902 462.448,373.000 458.000 C 367.775 456.625,363.275 455.500,363.000 455.500 C 362.725 455.500,356.875 463.150,350.000 472.500 "
  />
</svg>