<?xml version="1.0" encoding="UTF-8" standalone="no"?>
<svg xmlns="http://www.w3.org/2000/svg" version="1.1"
     width="640" height="640" viewBox="0 0 640 640">
  <!-- tracer.py: pure-Python Potrace transpile -->
  <path
    fill="#000000"
    stroke="none"
    fill-rule="evenodd"
    d="M301.500 82.000 C 279.042 83.604,249.940 94.130,231.000 107.500 C 196.249 132.030,170.344 172.821,164.000 213.000 C 158.446 248.172,163.581 273.470,184.500 314.000 C 201.007 345.981,221.439 375.892,267.500 435.500 C 276.850 447.600,289.225 463.800,295.000 471.500 C 300.775 479.200,307.975 489.100,311.000 493.500 C 314.025 497.900,316.950 501.950,317.500 502.500 C 318.167 503.167,320.167 501.167,323.500 496.500 C 332.706 483.612,345.376 466.661,360.500 447.000 C 421.176 368.121,444.648 334.205,460.500 302.500 C 474.021 275.459,478.500 259.283,478.500 237.500 C 478.500 211.271,473.157 190.049,460.500 166.000 C 442.443 131.691,413.896 106.543,376.500 92.000 C 355.096 83.676,328.214 80.092,301.500 82.000  M333.000 186.000 C 347.734 188.947,360.678 195.678,370.500 205.500 C 384.793 219.793,392.225 240.456,391.000 262.500 C 390.004 280.425,384.297 292.267,371.000 304.000 C 354.920 318.188,343.052 323.185,323.500 324.000 C 309.165 324.597,301.005 323.136,290.000 318.000 C 274.375 310.708,260.882 296.456,254.500 280.500 C 240.126 244.566,259.158 201.628,295.500 188.000 C 306.677 183.809,318.809 183.162,333.000 186.000  M350.000 472.500 C 343.125 481.850,333.675 494.900,329.000 501.500 C 317.961 517.085,317.838 517.097,309.000 503.500 C 305.425 498.000,296.200 485.175,288.500 475.000 C 272.333 453.637,274.298 454.669,259.000 459.500 C 239.401 465.689,225.064 474.082,218.000 483.500 C 211.284 492.455,209.500 497.177,209.500 506.000 C 209.500 515.109,211.578 520.364,218.000 527.500 C 228.865 539.573,248.684 549.308,275.000 555.500 C 287.623 558.470,299.337 559.500,320.500 559.500 C 340.155 559.500,351.461 558.580,363.500 556.000 C 389.782 550.368,410.120 540.460,422.000 527.500 C 429.373 519.457,431.652 513.631,431.000 504.500 C 429.766 487.220,415.948 473.879,387.500 462.500 C 383.335 460.834,364.666 455.500,363.000 455.500 C 362.725 455.500,356.875 463.150,350.000 472.500 "
  />
</svg>