<?xml version="1.0" encoding="UTF-8" standalone="no"?>
<svg xmlns="http://www.w3.org/2000/svg" version="1.1"
     width="640" height="640" viewBox="0 0 640 640">
  <!-- tracer.py multi-color mode: 6 color layers -->
  <path fill="#f4f4f4" stroke="none" fill-rule="evenodd" d="M0.500 320.000 L 0.500 639.500 320.000 639.500 L 639.500 639.500 639.500 320.000 L 639.500 0.500 320.000 0.500 L 0.500 0.500 0.500 320.000  M344.000 83.000 C 369.997 86.714,393.521 96.516,416.000 113.000 C 427.883 121.714,444.531 139.046,452.500 151.000 C 469.761 176.891,477.925 202.719,480.000 238.000 C 480.474 246.054,479.132 256.788,476.500 266.000 C 474.217 273.991,466.104 293.259,460.500 304.000 C 453.071 318.238,441.581 337.459,433.000 350.000 C 424.629 362.234,410.932 381.924,409.000 384.500 C 399.072 397.737,378.615 424.607,375.500 428.500 C 368.705 436.993,328.759 490.125,324.000 497.000 C 321.525 500.575,318.825 503.500,318.000 503.500 C 317.175 503.500,315.600 501.925,314.500 500.000 C 313.400 498.075,309.350 492.225,305.500 487.000 C 301.650 481.775,295.350 473.225,291.500 468.000 C 287.650 462.775,283.375 457.150,282.000 455.500 C 280.625 453.850,274.100 445.300,267.500 436.500 C 260.900 427.700,252.125 416.225,248.000 411.000 C 243.875 405.775,240.050 400.825,239.500 400.000 C 238.375 398.313,234.738 393.300,221.000 374.500 C 205.438 353.204,189.648 327.142,179.500 306.000 C 171.671 289.689,165.984 273.162,163.500 259.500 L 161.500 248.500 162.000 232.500 C 162.547 214.981,164.509 203.472,169.500 188.500 C 172.459 179.622,180.128 163.295,185.000 155.500 C 191.830 144.572,204.703 128.798,214.378 119.500 C 218.346 115.687,229.293 107.254,234.500 104.000 C 242.792 98.817,261.913 90.374,273.000 87.000 C 284.567 83.479,302.215 80.500,311.500 80.500 C 320.616 80.500,333.365 81.481,344.000 83.000  M300.500 187.500 C 295.167 188.833,290.500 190.833,286.500 193.500 C 283.200 195.700,280.500 197.950,280.500 198.500 C 280.500 199.050,279.825 199.275,279.000 199.000 C 276.777 198.259,268.359 207.173,262.000 217.000 C 258.975 221.675,255.375 228.875,254.000 233.000 L 251.500 240.500 251.500 254.500 C 251.500 265.500,251.929 270.000,253.500 275.500 C 257.082 288.037,267.533 302.754,278.000 310.000 C 287.516 316.588,295.414 320.244,305.000 322.500 C 321.203 326.312,334.851 324.570,352.000 316.500 C 367.595 309.161,377.296 299.908,384.500 285.500 C 388.195 278.109,389.356 272.515,390.000 259.000 C 390.342 251.821,390.026 246.128,389.000 241.000 C 385.769 224.846,376.095 209.696,362.500 199.500 C 356.701 195.151,345.559 189.802,337.500 187.500 C 332.409 186.045,327.500 185.500,319.500 185.500 C 311.833 185.500,306.076 186.106,300.500 187.500  M375.500 458.000 C 384.726 460.563,398.239 466.176,408.000 471.500 C 415.598 475.644,425.910 486.202,429.000 493.000 C 430.905 497.190,431.500 500.167,431.500 505.500 C 431.500 509.350,430.825 514.300,430.000 516.500 C 427.369 523.517,422.684 529.372,416.000 534.000 C 399.532 545.401,393.548 548.251,374.000 554.000 C 360.658 557.924,349.009 559.460,328.500 560.000 C 308.073 560.538,289.434 559.408,279.000 557.000 C 275.425 556.175,270.475 555.050,268.000 554.500 C 261.377 553.028,247.368 547.934,240.500 544.500 C 231.849 540.174,222.114 533.191,217.500 528.000 C 215.300 525.525,212.375 521.025,211.000 518.000 C 209.095 513.810,208.500 510.833,208.500 505.500 C 208.500 500.033,209.048 497.405,211.000 493.500 C 212.375 490.750,215.750 485.575,218.500 482.000 C 222.183 477.213,225.476 474.314,231.000 471.000 C 239.965 465.621,252.711 460.244,263.000 457.500 C 273.822 454.614,275.048 454.778,278.000 459.500 C 279.375 461.700,281.850 464.850,283.500 466.500 C 285.150 468.150,286.500 469.950,286.500 470.500 C 286.500 471.050,289.650 475.550,293.500 480.500 C 297.350 485.450,304.325 495.125,309.000 502.000 C 313.675 508.875,317.725 514.725,318.000 515.000 C 318.275 515.275,321.875 510.550,326.000 504.500 C 330.125 498.450,338.000 487.650,343.500 480.500 C 349.000 473.350,355.300 464.800,357.500 461.500 C 360.611 456.833,362.056 455.500,364.000 455.500 C 365.375 455.500,370.550 456.625,375.500 458.000 "/>
  <path fill="#c6c6c6" stroke="none" fill-rule="evenodd" d="M249.500 254.500 C 249.500 258.500,249.714 260.000,250.000 258.000 C 250.275 256.075,250.275 252.925,250.000 251.000 C 249.714 249.000,249.500 250.500,249.500 254.500 "/>
  <path fill="#929292" stroke="none" fill-rule="evenodd" d="M479.500 237.500 C 479.500 241.500,479.714 243.000,480.000 241.000 C 480.275 239.075,480.275 235.925,480.000 234.000 C 479.714 232.000,479.500 233.500,479.500 237.500 "/>
  <path fill="#5c5c5c" stroke="none" fill-rule="evenodd" d="M315.000 561.000 C 318.575 561.275,323.975 561.275,327.000 561.000 C 330.056 560.722,327.167 560.500,320.500 560.500 C 312.500 560.500,310.667 560.667,315.000 561.000 "/>
  <path fill="#2a2a2a" stroke="none" fill-rule="evenodd" d="M316.000 82.000 C 318.475 82.275,322.300 82.275,324.500 82.000 C 326.700 81.725,324.675 81.500,320.000 81.500 C 314.667 81.500,313.176 81.686,316.000 82.000  M248.500 255.500 C 248.500 258.833,248.722 260.167,249.000 258.500 C 249.275 256.850,249.275 254.150,249.000 252.500 C 248.722 250.833,248.500 252.167,248.500 255.500 "/>
  <path fill="#000000" stroke="none" fill-rule="evenodd" d="M300.500 82.500 C 294.798 82.500,274.463 87.514,264.000 91.500 C 244.835 98.801,231.341 106.636,217.500 118.500 C 201.175 132.493,181.661 160.082,174.000 180.000 C 169.543 191.589,167.538 198.312,165.500 208.500 C 163.944 216.278,163.500 222.500,163.500 236.500 L 163.500 254.500 166.000 265.000 C 169.253 278.663,174.825 293.150,183.500 310.500 C 189.429 322.358,197.727 337.340,201.500 343.000 C 202.050 343.825,207.000 351.250,212.500 359.500 C 224.534 377.551,248.130 409.453,275.000 444.000 C 276.925 446.475,278.950 448.275,279.500 448.000 C 280.050 447.725,280.275 448.175,280.000 449.000 C 279.725 449.825,280.850 452.075,282.500 454.000 C 286.355 458.498,301.362 478.507,311.000 492.000 L 318.500 502.500 322.000 497.500 C 323.925 494.750,327.300 490.025,329.500 487.000 C 335.652 478.540,338.549 473.599,338.000 472.500 C 337.725 471.950,337.950 471.725,338.500 472.000 C 339.332 472.416,344.591 466.379,352.000 456.500 C 352.825 455.400,356.200 451.125,359.500 447.000 C 370.207 433.617,392.500 402.541,392.500 401.000 C 392.500 400.175,392.950 399.500,393.500 399.500 C 394.050 399.500,400.350 392.075,407.500 383.000 C 419.985 367.154,427.492 356.371,435.000 343.500 C 436.925 340.200,438.950 337.050,439.500 336.500 C 442.164 333.836,452.775 315.897,460.500 301.000 C 471.074 280.607,475.299 267.312,477.500 247.500 C 478.614 237.476,477.506 219.530,475.000 207.000 C 471.676 190.380,462.841 169.012,453.500 155.000 C 443.180 139.519,429.624 124.589,419.000 117.000 C 417.075 115.625,415.050 114.050,414.500 113.500 C 412.072 111.072,400.756 104.128,392.500 100.000 C 377.652 92.576,370.128 89.840,354.000 86.000 L 343.500 83.500 323.500 83.000 C 312.500 82.725,302.150 82.500,300.500 82.500  M343.500 188.000 C 350.689 190.567,356.741 193.868,365.500 200.000 C 375.713 207.149,386.678 224.603,390.000 239.000 C 391.488 245.447,391.961 259.888,391.000 269.500 C 390.448 275.017,387.589 283.593,384.500 289.000 C 383.400 290.925,380.925 294.525,379.000 297.000 C 377.075 299.475,375.725 301.950,376.000 302.500 C 376.275 303.050,376.050 303.275,375.500 303.000 C 374.950 302.725,371.575 304.975,368.000 308.000 C 360.508 314.339,348.172 320.832,339.500 323.000 C 330.284 325.304,315.797 325.743,306.500 324.000 C 297.011 322.221,281.767 315.313,274.500 309.500 C 271.750 307.300,267.475 303.025,265.000 300.000 C 255.163 287.977,247.955 266.128,249.000 251.500 C 249.804 240.240,251.195 235.140,256.500 224.000 C 260.389 215.833,263.278 211.500,269.500 204.500 L 277.500 195.500 285.500 191.500 C 293.725 187.387,302.594 184.500,307.000 184.500 C 308.375 184.500,315.575 184.725,323.000 185.000 L 336.500 185.500 343.500 188.000  M359.000 462.000 C 357.075 465.025,354.825 468.175,354.000 469.000 C 350.844 472.156,334.172 495.003,327.000 506.000 C 322.875 512.325,319.050 517.500,318.500 517.500 C 317.950 517.500,316.375 515.700,315.000 513.500 C 313.625 511.300,312.050 509.050,311.500 508.500 C 310.950 507.950,310.050 506.600,309.500 505.500 C 308.172 502.843,289.309 476.826,280.500 465.500 C 276.650 460.550,272.825 456.500,272.000 456.500 C 271.175 456.500,265.550 458.075,259.500 460.000 C 247.555 463.801,234.829 469.753,228.500 474.500 C 222.009 479.368,215.710 487.046,212.500 494.000 L 209.500 500.500 210.000 507.500 C 210.374 512.742,211.253 515.881,213.500 520.000 C 217.904 528.075,228.214 536.857,240.500 543.000 C 262.168 553.834,289.640 559.500,320.500 559.500 C 344.560 559.500,365.630 556.096,385.500 549.000 C 406.702 541.428,421.846 530.250,427.500 518.000 C 429.150 514.425,430.725 509.925,431.000 508.000 C 431.610 503.732,429.369 495.891,426.000 490.500 C 420.011 480.917,407.490 471.662,391.500 465.000 C 384.812 462.213,366.328 456.500,364.000 456.500 C 363.175 456.500,360.925 458.975,359.000 462.000 "/>
</svg>