<?xml version="1.0" encoding="UTF-8"?>
<!DOCTYPE svg PUBLIC "-//W3C//DTD SVG 1.1//EN" "http://www.w3.org/Graphics/SVG/1.1/DTD/svg11.dtd">
<svg xmlns="http://www.w3.org/2000/svg"
     width="640" height="640"
     viewBox="0 0 640 640"
     style="shape-rendering:geometricPrecision; fill-rule:evenodd; clip-rule:evenodd">
  <rect width="640" height="640" fill="white"/>
  <g fill="#000000" stroke="none">
  <path d="M 332.500 82.500 L 341.500 82.500 C 343.751 82.725 341.150 83.275 342.500 83.500 L 347.500 83.500 C 348.850 83.725 347.150 84.275 348.500 84.500 L 353.500 84.500 L 358.500 86.500 L 361.500 86.500 L 362.500 87.500 C 363.400 87.725 363.249 86.825 365.500 87.500 L 372.500 90.500 C 374.526 91.175 373.375 90.050 374.500 90.500 L 377.500 92.500 L 379.500 92.500 L 382.500 94.500 C 383.625 94.950 380.899 92.925 384.500 94.500 L 398.500 101.500 C 402.101 103.526 398.925 102.600 400.500 103.500 L 405.500 105.500 L 411.500 109.500 L 423.500 119.500 C 426.426 121.751 420.449 115.674 424.500 119.500 L 441.500 136.500 C 445.326 140.551 439.249 134.574 441.500 137.500 L 451.500 149.500 C 454.876 154.226 454.925 156.024 456.500 158.500 C 458.075 160.976 456.024 155.999 458.500 160.500 L 467.500 178.500 C 469.751 183.676 467.825 181.700 468.500 183.500 L 470.500 186.500 L 471.500 191.500 C 471.950 192.850 471.600 188.899 472.500 192.500 L 475.500 207.500 C 476.400 211.101 476.050 205.574 476.500 208.500 L 477.500 220.500 C 477.950 223.426 478.275 214.748 478.500 221.500 L 478.500 250.500 C 478.275 257.252 477.725 250.375 477.500 251.500 L 477.500 255.500 C 477.275 256.625 476.950 254.700 476.500 256.500 L 475.500 263.500 C 475.050 265.300 474.725 263.600 474.500 264.500 C 474.275 265.400 475.175 265.249 474.500 267.500 L 471.500 274.500 C 470.825 276.526 471.950 275.375 471.500 276.500 L 469.500 279.500 C 469.050 280.625 470.175 279.925 469.500 281.500 L 466.500 286.500 C 465.825 288.075 469.201 282.649 466.500 288.500 L 454.500 312.500 C 451.349 318.351 454.751 310.674 452.500 314.500 L 444.500 329.500 C 441.799 334.001 441.625 332.700 440.500 334.500 C 439.375 336.300 443.326 331.423 439.500 337.500 L 423.500 361.500 L 407.500 382.500 C 402.999 388.802 405.300 387.024 403.500 389.500 C 401.700 391.976 408.952 381.122 399.500 393.500 L 361.500 444.500 C 352.048 456.878 364.477 439.498 357.500 448.500 L 330.500 484.500 C 323.523 494.177 329.426 487.224 326.500 491.500 C 323.574 495.776 322.226 504.850 317.500 503.500 C 312.774 502.150 312.927 495.853 305.500 485.500 L 284.500 457.500 C 278.874 450.298 286.577 461.377 280.500 453.500 L 257.500 422.500 C 251.423 414.623 257.776 423.901 253.500 418.500 L 238.500 398.500 C 234.674 393.099 237.850 396.300 236.500 394.500 L 232.500 390.500 C 231.150 388.700 232.300 388.976 230.500 386.500 L 224.500 379.500 C 222.925 377.249 226.651 381.001 223.500 376.500 L 210.500 359.500 C 207.349 354.999 213.326 362.577 209.500 356.500 C 205.674 350.423 199.577 342.853 193.500 332.500 C 187.423 322.147 185.426 315.901 182.500 310.500 C 179.574 305.099 180.950 309.400 180.500 308.500 C 180.050 307.600 181.625 308.976 180.500 306.500 L 175.500 297.500 C 174.375 295.024 176.625 298.426 175.500 295.500 L 170.500 284.500 C 169.375 281.574 170.950 283.625 170.500 282.500 L 168.500 279.500 L 168.500 276.500 C 168.050 274.925 167.400 275.876 166.500 272.500 L 164.500 261.500 C 163.825 258.799 163.725 261.850 163.500 260.500 L 163.500 255.500 C 163.275 254.150 162.725 256.526 162.500 254.500 L 162.500 246.500 C 162.275 244.474 161.725 249.326 161.500 245.500 L 161.500 229.500 C 161.725 225.674 162.275 230.751 162.500 228.500 L 162.500 219.500 C 162.725 217.249 163.050 221.426 163.500 218.500 L 164.500 206.500 C 164.950 203.574 164.825 207.976 165.500 205.500 L 167.500 195.500 C 168.175 193.024 168.275 195.400 168.500 194.500 C 168.725 193.600 167.825 193.751 168.500 191.500 L 171.500 184.500 C 172.175 182.474 170.825 184.075 171.500 182.500 L 174.500 177.500 C 175.175 175.925 172.925 179.101 174.500 175.500 C 176.075 171.899 176.549 169.602 181.500 161.500 C 186.451 153.398 189.973 147.827 196.500 139.500 C 203.027 131.173 207.124 127.876 210.500 124.500 C 213.876 121.124 209.700 126.075 211.500 124.500 L 218.500 117.500 C 220.300 115.925 217.474 119.075 219.500 117.500 L 227.500 110.500 C 231.326 107.799 234.024 107.075 236.500 105.500 C 238.976 103.925 237.375 104.175 238.500 103.500 L 241.500 102.500 C 242.625 101.825 238.549 102.976 243.500 100.500 L 263.500 91.500 C 271.152 88.574 274.124 88.625 277.500 87.500 C 280.876 86.375 276.249 86.950 278.500 86.500 L 287.500 85.500 C 290.651 84.825 290.024 83.950 292.500 83.500 L 298.500 83.500 C 300.075 83.275 297.249 82.725 299.500 82.500 L 308.500 82.500 C 310.751 82.275 304.324 81.725 309.500 81.500 L 331.500 81.500 C 336.676 81.725 330.249 82.275 332.500 82.500 Z" fill-rule="evenodd"/>
  <path d="M 431.500 511.500 C 430.600 516.226 429.751 517.449 427.500 521.500 C 425.249 525.551 426.451 524.999 421.500 529.500 C 416.549 534.001 412.927 536.999 405.500 541.500 C 398.073 546.001 394.126 547.249 388.500 549.500 C 382.874 551.751 382.526 550.825 380.500 551.500 C 378.474 552.175 380.400 552.275 379.500 552.500 L 376.500 552.500 L 372.500 554.500 L 368.500 554.500 L 363.500 556.500 L 360.500 556.500 C 359.600 556.725 361.300 557.275 359.500 557.500 L 352.500 557.500 C 350.700 557.725 353.075 558.275 351.500 558.500 L 345.500 558.500 C 343.925 558.725 347.201 559.275 344.500 559.500 L 333.500 559.500 C 330.799 559.725 338.126 560.275 332.500 560.500 L 308.500 560.500 C 302.874 560.275 310.201 559.725 307.500 559.500 L 296.500 559.500 C 293.799 559.275 298.876 558.950 295.500 558.500 L 281.500 557.500 C 278.124 557.050 281.625 556.725 280.500 556.500 L 276.500 556.500 L 271.500 554.500 L 268.500 554.500 L 267.500 553.500 L 264.500 553.500 L 260.500 551.500 L 257.500 551.500 C 256.150 551.050 257.426 550.625 254.500 549.500 C 251.574 548.375 250.351 549.201 244.500 546.500 C 238.649 543.799 235.027 542.226 228.500 537.500 C 221.973 532.774 219.551 530.001 215.500 525.500 C 211.449 520.999 211.850 520.651 210.500 517.500 C 209.150 514.349 209.950 513.075 209.500 511.500 C 209.050 509.925 208.725 512.751 208.500 510.500 L 208.500 501.500 C 208.725 499.249 209.050 502.075 209.500 500.500 C 209.950 498.925 209.150 497.651 210.500 494.500 C 211.850 491.349 212.349 490.326 215.500 486.500 L 224.500 477.500 L 234.500 470.500 L 244.500 465.500 C 247.201 464.375 243.574 466.625 246.500 465.500 L 257.500 460.500 C 260.651 459.375 258.249 461.175 260.500 460.500 L 267.500 457.500 C 269.976 456.825 270.375 457.725 271.500 457.500 C 272.625 457.275 271.825 456.500 272.500 456.500 C 273.175 456.500 272.925 455.474 274.500 457.500 L 279.500 465.500 C 281.526 468.201 279.899 464.999 283.500 469.500 L 295.500 485.500 C 298.651 490.001 296.375 487.925 297.500 489.500 L 300.500 492.500 L 304.500 499.500 C 306.075 501.751 304.574 498.449 307.500 502.500 C 310.426 506.551 314.574 514.799 317.500 517.500 C 320.426 520.201 315.999 521.027 320.500 514.500 C 325.001 507.973 328.048 501.778 337.500 488.500 C 346.952 475.222 354.398 462.477 362.500 455.500 C 370.602 448.523 370.124 456.600 373.500 457.500 C 376.876 458.400 375.925 459.050 377.500 459.500 L 380.500 459.500 L 384.500 461.500 C 385.850 461.950 384.249 460.600 386.500 461.500 L 394.500 465.500 C 396.751 466.400 395.150 464.825 396.500 465.500 L 400.500 468.500 C 403.426 470.075 405.674 470.249 409.500 472.500 L 417.500 478.500 C 420.651 481.201 420.574 480.449 423.500 484.500 L 430.500 496.500 C 432.075 499.876 430.275 498.600 430.500 499.500 C 430.725 500.400 431.275 497.799 431.500 500.500 C 431.725 503.201 432.400 506.774 431.500 511.500 Z" fill-rule="evenodd"/>
  <path d="M 306.500 185.500 C 305.375 185.725 304.976 184.825 302.500 185.500 L 295.500 188.500 C 293.474 189.175 296.201 187.375 293.500 188.500 L 283.500 193.500 C 278.999 196.201 278.451 195.999 273.500 200.500 C 268.549 205.001 264.876 209.224 261.500 213.500 C 258.124 217.776 259.625 217.700 258.500 219.500 L 256.500 221.500 L 254.500 225.500 C 254.050 226.850 255.175 225.925 254.500 227.500 C 253.825 229.075 252.400 229.799 251.500 232.500 C 250.600 235.201 250.950 237.700 250.500 239.500 C 250.050 241.300 249.725 239.150 249.500 240.500 L 249.500 245.500 C 249.275 246.850 248.725 242.449 248.500 246.500 L 248.500 263.500 C 248.725 267.551 249.050 262.249 249.500 264.500 L 250.500 273.500 C 251.175 276.426 252.050 276.150 252.500 277.500 C 252.950 278.850 251.150 276.349 252.500 279.500 L 258.500 291.500 L 262.500 297.500 L 268.500 303.500 C 269.850 305.075 265.799 302.024 268.500 304.500 C 271.201 306.976 274.198 310.449 280.500 314.500 C 286.802 318.551 290.423 320.249 296.500 322.500 C 302.577 324.751 304.799 323.825 307.500 324.500 C 310.201 325.175 303.099 325.275 308.500 325.500 L 331.500 325.500 C 336.901 325.275 331.375 324.725 332.500 324.500 L 336.500 324.500 C 337.625 324.275 336.600 323.725 337.500 323.500 L 340.500 323.500 L 344.500 321.500 C 345.850 321.050 343.349 322.850 346.500 321.500 L 358.500 315.500 C 362.776 313.024 361.224 314.326 365.500 310.500 L 377.500 298.500 C 381.551 293.774 381.249 293.326 383.500 289.500 L 387.500 281.500 C 388.625 278.574 388.050 277.850 388.500 276.500 C 388.950 275.150 389.275 276.400 389.500 275.500 L 389.500 272.500 L 390.500 271.500 L 390.500 268.500 C 390.725 267.600 391.275 269.075 391.500 267.500 L 391.500 261.500 C 391.725 259.925 392.275 263.426 392.500 260.500 L 392.500 248.500 C 392.275 245.574 391.725 248.850 391.500 247.500 L 391.500 242.500 C 391.275 241.150 390.725 242.625 390.500 241.500 C 390.275 240.375 391.175 239.976 390.500 237.500 L 387.500 230.500 C 386.825 228.474 388.625 231.201 387.500 228.500 L 382.500 218.500 C 380.249 214.674 382.451 216.676 377.500 211.500 C 372.549 206.324 366.802 200.451 360.500 195.500 C 354.198 190.549 352.426 190.850 349.500 189.500 C 346.574 188.150 348.625 189.950 347.500 189.500 L 344.500 187.500 L 339.500 186.500 C 338.150 186.050 341.201 185.950 338.500 185.500 L 327.500 184.500 C 324.799 184.050 329.426 183.725 326.500 183.500 L 314.500 183.500 C 311.574 183.725 315.075 184.275 313.500 184.500 L 307.500 184.500 C 305.925 184.725 307.625 185.275 306.500 185.500 Z" fill-rule="evenodd"/>
  </g>
</svg>
