<?xml version="1.0" encoding="UTF-8" standalone="no"?>
<svg xmlns="http://www.w3.org/2000/svg" version="1.1"
     width="640" height="640" viewBox="0 0 640 640">
  <!-- tracer.py: pure-Python Potrace transpile -->
  <path
    fill="#000000"
    stroke="none"
    fill-rule="evenodd"
    d="M0.500 320.000 L 0.500 638.700 A 0.420 0.420 0 0 0 1.300 639.500 L 320.000 639.500 L 638.700 639.500 A 0.420 0.420 0 0 0 639.500 638.700 L 639.500 320.000 L 639.500 1.300 A 0.420 0.420 0 0 0 638.700 0.500 L 320.000 0.500 L 1.300 0.500 A 0.420 0.420 0 0 0 0.500 1.300 L 0.500 320.000  M337.000 82.500 C 364.676 85.756,389.304 95.053,412.500 111.000 C 441.914 131.222,465.125 165.001,474.000 200.500 C 477.503 214.513,478.500 222.598,478.500 237.000 C 478.500 259.348,475.621 270.864,464.000 295.000 C 448.205 327.806,425.756 361.992,387.500 411.500 C 369.437 434.876,335.810 479.532,325.000 494.500 C 321.424 499.451,318.050 503.050,317.500 502.500 C 317.500 502.500,309.000 490.500,309.000 490.500 C 309.000 490.500,282.000 454.500,282.000 454.500 C 256.985 422.430,225.197 380.045,217.500 368.500 C 197.205 338.058,191.725 328.949,182.000 309.500 C 166.978 279.456,160.739 254.966,162.000 231.000 C 164.175 189.678,181.240 153.760,214.500 120.500 C 234.310 100.690,271.741 84.126,301.500 82.000 C 312.648 81.204,327.795 81.417,337.000 82.500  M306.500 185.500 C 285.050 188.564,266.898 202.904,256.500 225.000 C 241.864 256.102,250.302 288.541,279.000 311.500 C 283.737 315.289,297.516 321.503,304.500 323.000 C 308.620 323.883,316.438 324.294,323.500 324.000 C 343.052 323.185,354.920 318.188,371.000 304.000 C 386.777 290.079,392.696 274.246,391.000 250.500 C 390.344 241.310,388.379 234.367,383.500 224.000 C 380.720 218.093,376.602 212.602,370.000 206.000 C 363.398 199.398,357.907 195.280,352.000 192.500 C 352.000 192.500,338.000 187.000,338.000 187.000 C 330.671 185.001,315.161 184.263,306.500 185.500  M373.000 458.000 C 401.209 465.424,420.693 477.886,428.500 493.500 C 431.579 499.657,431.329 512.695,428.000 519.559 C 420.950 534.098,399.238 547.066,369.500 554.500 C 354.032 558.367,342.815 559.500,320.000 559.500 C 297.709 559.500,287.488 558.457,271.000 554.500 C 248.447 549.087,231.891 540.891,220.500 529.500 C 211.709 520.709,209.500 515.990,209.500 506.000 C 209.500 485.665,226.392 469.797,259.000 459.500 C 274.050 454.747,272.738 454.178,285.500 471.000 C 285.500 471.000,307.000 500.500,307.000 500.500 C 307.000 500.500,318.000 516.000,318.000 516.000 C 318.000 516.000,328.000 503.000,328.000 503.000 C 340.983 484.550,362.389 455.500,363.000 455.500 C 363.000 455.500,373.000 458.000,373.000 458.000 "
  />
</svg>