<svg xmlns="http://www.w3.org/2000/svg" width="640" height="640" viewBox="0 0 640 640">
  <path d="M 331.00 81.00 L 309.00 81.00 L 278.00 86.00 L 243.00 100.00 L 218.00 117.00 L 196.00 139.00 L 181.00 161.00 L 168.00 191.00 L 164.00 206.00 L 161.00 229.00 L 162.00 254.00 L 168.00 279.00 L 180.00 308.00 L 193.00 332.00 L 224.00 379.00 L 305.00 485.00 L 316.00 502.00 L 319.00 501.00 L 330.00 484.00 L 403.00 389.00 L 430.00 351.00 L 450.00 319.00 L 466.00 288.00 L 474.00 267.00 L 478.00 250.00 L 478.00 221.00 L 472.00 192.00 L 458.00 160.00 L 441.00 136.00 L 424.00 119.00 L 398.00 101.00 L 365.00 87.00 L 331.00 81.00 Z M 362.00 455.00 L 316.00 516.00 L 274.00 457.00 L 362.00 455.00 Z M 307.00 184.00 L 326.00 183.00 L 338.00 185.00 L 360.00 195.00 L 377.00 211.00 L 382.00 218.00 L 391.00 242.00 L 391.00 267.00 L 387.00 281.00 L 377.00 298.00 L 358.00 315.00 L 346.00 321.00 L 331.00 325.00 L 308.00 325.00 L 296.00 322.00 L 280.00 314.00 L 268.00 304.00 L 258.00 291.00 L 252.00 279.00 L 248.00 263.00 L 248.00 246.00 L 251.00 232.00 L 261.00 213.00 L 273.00 200.00 L 283.00 193.00 L 307.00 184.00 Z" fill="black" stroke="none" fill-rule="evenodd"/>
</svg>
